<svg viewBox="0 0 80 80" xmlns="http://www.w3.org/2000/svg">
  <defs>
    <radialGradient id="bgGlow" cx="50%" cy="50%" r="55%">
      <stop offset="0%" stop-color="#3a0810"/>
      <stop offset="55%" stop-color="#1a0308"/>
      <stop offset="100%" stop-color="#06080d"/>
    </radialGradient>
    <radialGradient id="redAmbient" cx="50%" cy="50%" r="45%">
      <stop offset="0%" stop-color="#ff2030" stop-opacity="0.50"/>
      <stop offset="60%" stop-color="#e30613" stop-opacity="0.15"/>
      <stop offset="100%" stop-color="#e30613" stop-opacity="0"/>
    </radialGradient>
    <linearGradient id="heroGrad" x1="0%" y1="0%" x2="100%" y2="100%">
      <stop offset="0%" stop-color="#ff4757"/>
      <stop offset="55%" stop-color="#e30613"/>
      <stop offset="100%" stop-color="#7a0410"/>
    </linearGradient>
    <linearGradient id="heroShine" x1="0%" y1="0%" x2="0%" y2="100%">
      <stop offset="0%"  stop-color="#ffffff" stop-opacity="0.55"/>
      <stop offset="40%" stop-color="#ffffff" stop-opacity="0.18"/>
      <stop offset="100%" stop-color="#ffffff" stop-opacity="0"/>
    </linearGradient>
    <radialGradient id="heroSpec" cx="32%" cy="22%" r="38%">
      <stop offset="0%"  stop-color="#ffffff" stop-opacity="0.55"/>
      <stop offset="60%" stop-color="#ffffff" stop-opacity="0.08"/>
      <stop offset="100%" stop-color="#ffffff" stop-opacity="0"/>
    </radialGradient>
    <linearGradient id="heroEdge" x1="0%" y1="0%" x2="0%" y2="100%">
      <stop offset="0%"  stop-color="rgba(255,255,255,0.95)"/>
      <stop offset="50%" stop-color="rgba(255,255,255,0.55)"/>
      <stop offset="100%" stop-color="rgba(255,255,255,0.25)"/>
    </linearGradient>
  </defs>
  <rect width="80" height="80" fill="url(#bgGlow)"/>
  <circle cx="40" cy="40" r="36" fill="url(#redAmbient)"/>
  <path d="M40 4 L70 14 L70 44 Q70 64 40 76 Q10 64 10 44 L10 14 Z"
        fill="url(#heroGrad)" stroke="url(#heroEdge)" stroke-width="1.3"/>
  <path d="M40 4 L70 14 L70 32 Q55 36 40 32 Q25 36 10 32 L10 14 Z"
        fill="url(#heroShine)" opacity="0.85"/>
  <ellipse cx="28" cy="22" rx="14" ry="9" fill="url(#heroSpec)" opacity="0.7"/>
  <text x="40" y="51" text-anchor="middle" font-family="Arial, sans-serif"
        font-size="26" font-weight="900" fill="#ffffff" letter-spacing="-1.5">SH</text>
  <circle cx="40" cy="13" r="2.8" fill="#f5c518"/>
  <circle cx="40" cy="13" r="2.8" fill="url(#heroSpec)" opacity="0.6"/>
</svg>
